+ filenameToUse=/home/horvathandras/vatic/vatic/public/videouploads/Turas_belviz.avi
+ filenameNoDot=Turas_belviz_Homokmegy_2018.04.25._napos_kalaszos_T1
+ FullUploadPath=/home/horvathandras/vatic/vatic/public/videouploads/Turas_belviz.avi
+ VideoDataDir=/home/horvathandras/vatic/vatic/videos
+ AvailableObjectTypes='PozitívROI NegatívROI Túrás ~Friss ~Régebbi Rágás ~Friss ~Régebbi Törés ~Friss ~Régebbi Taposás ~Friss ~Régebbi EgészségesNövény Egyéb1 Egyéb2 Egyéb3 Egyéb4 Egyéb5'
++ dirname /home/horvathandras/vatic/vatic/vatic_publisher.sh
+ cd /home/horvathandras/vatic/vatic
+ touch /home/horvathandras/vatic/vatic/public/videouploads/Turas_belviz.avi
+ chmod 744 /home/horvathandras/vatic/vatic/public/videouploads/Turas_belviz.avi
+ mkdir /home/horvathandras/vatic/vatic/videos/Turas_belviz_Homokmegy_2018.04.25._napos_kalaszos_T1
+ turkic extract /home/horvathandras/vatic/vatic/public/videouploads/Turas_belviz.avi /home/horvathandras/vatic/vatic/videos/Turas_belviz_Homokmegy_2018.04.25._napos_kalaszos_T1 --no-resize
ffmpeg version 2.8.14-0ubuntu0.16.04.1 Copyright (c) 2000-2018 the FFmpeg developers
  built with gcc 5.4.0 (Ubuntu 5.4.0-6ubuntu1~16.04.9) 20160609
  configuration: --prefix=/usr --extra-version=0ubuntu0.16.04.1 --build-suffix=-ffmpeg --toolchain=hardened --libdir=/usr/lib/x86_64-linux-gnu --incdir=/usr/include/x86_64-linux-gnu --cc=cc --cxx=g++ --enable-gpl --enable-shared --disable-stripping --disable-decoder=libopenjpeg --disable-decoder=libschroedinger --enable-avresample --enable-avisynth --enable-gnutls --enable-ladspa --enable-libass --enable-libbluray --enable-libbs2b --enable-libcaca --enable-libcdio --enable-libflite --enable-libfontconfig --enable-libfreetype --enable-libfribidi --enable-libgme --enable-libgsm --enable-libmodplug --enable-libmp3lame --enable-libopenjpeg --enable-libopus --enable-libpulse --enable-librtmp --enable-libschroedinger --enable-libshine --enable-libsnappy --enable-libsoxr --enable-libspeex --enable-libssh --enable-libtheora --enable-libtwolame --enable-libvorbis --enable-libvpx --enable-libwavpack --enable-libwebp --enable-libx265 --enable-libxvid --enable-libzvbi --enable-openal --enable-opengl --enable-x11grab --enable-libdc1394 --enable-libiec61883 --enable-libzmq --enable-frei0r --enable-libx264 --enable-libopencv
  libavutil      54. 31.100 / 54. 31.100
  libavcodec     56. 60.100 / 56. 60.100
  libavformat    56. 40.101 / 56. 40.101
  libavdevice    56.  4.100 / 56.  4.100
  libavfilter     5. 40.101 /  5. 40.101
  libavresample   2.  1.  0 /  2.  1.  0
  libswscale      3.  1.101 /  3.  1.101
  libswresample   1.  2.101 /  1.  2.101
  libpostproc    53.  3.100 / 53.  3.100
Input #0, mov,mp4,m4a,3gp,3g2,mj2, from '/home/horvathandras/vatic/vatic/public/videouploads/Turas_belviz.avi':
  Metadata:
    major_brand     : qt  
    minor_version   : 537986816
    compatible_brands: qt  
    creation_time   : 2018-03-31 10:56:36
    location        : +46.516677+19.171507+30.200
    location-{    : +46.516677+19.171507+30.200
    comment         : DE=None, Mode=P, DSW=0001
  Duration: 00:01:02.43, start: 0.000000, bitrate: 100342 kb/s
    Stream #0:0(eng): Video: h264 (High) (avc1 / 0x31637661), yuv420p(tv, bt709), 3840x2160 [SAR 1:1 DAR 16:9], 100295 kb/s, 29.97 fps, 29.97 tbr, 30k tbn, 59.94 tbc (default)
    Metadata:
      creation_time   : 2018-03-31 10:56:36
      handler_name    : DJI.AVC
      encoder         : AVC encoder
    Stream #0:1(eng): Data: none (priv / 0x76697270), 43 kb/s
    Metadata:
      creation_time   : 2018-03-31 10:56:36
      handler_name    : DJI.Meta
Please use -b:a or -b:v, -b is ambiguous
[swscaler @ 0x2582b80] deprecated pixel format used, make sure you did set range correctly
Output #0, image2, to '/tmp/pyvision-ffmpeg-602359111/%d.jpg':
  Metadata:
    major_brand     : qt  
    minor_version   : 537986816
    compatible_brands: qt  
    comment         : DE=None, Mode=P, DSW=0001
    location        : +46.516677+19.171507+30.200
    location-{    : +46.516677+19.171507+30.200
    encoder         : Lavf56.40.101
    Stream #0:0(eng): Video: mjpeg, yuvj420p(pc), 3840x2160 [SAR 1:1 DAR 16:9], q=2-31, 10000 kb/s, 29.97 fps, 29.97 tbn, 29.97 tbc (default)
    Metadata:
      creation_time   : 2018-03-31 10:56:36
      handler_name    : DJI.AVC
      encoder         : Lavc56.60.100 mjpeg
Stream mapping:
  Stream #0:0 -> #0:0 (h264 (native) -> mjpeg (native))
Press [q] to stop, [?] for help
frame=    1 fps=0.0 q=12.3 size=N/A time=00:00:00.03 bitrate=N/A    frame=    6 fps=5.1 q=24.6 size=N/A time=00:00:00.20 bitrate=N/A    frame=   12 fps=6.9 q=24.8 size=N/A time=00:00:00.40 bitrate=N/A    frame=   18 fps=7.8 q=24.8 size=N/A time=00:00:00.60 bitrate=N/A    frame=   24 fps=8.3 q=24.8 size=N/A time=00:00:00.80 bitrate=N/A    frame=   30 fps=8.7 q=24.8 size=N/A time=00:00:01.00 bitrate=N/A    frame=   35 fps=8.8 q=24.8 size=N/A time=00:00:01.16 bitrate=N/A    frame=   41 fps=9.0 q=24.8 size=N/A time=00:00:01.36 bitrate=N/A    frame=   47 fps=9.2 q=24.8 size=N/A time=00:00:01.56 bitrate=N/A    frame=   53 fps=9.3 q=24.8 size=N/A time=00:00:01.76 bitrate=N/A    frame=   59 fps=9.4 q=24.8 size=N/A time=00:00:01.96 bitrate=N/A    frame=   65 fps=9.5 q=24.8 size=N/A time=00:00:02.16 bitrate=N/A    frame=   71 fps=9.6 q=24.8 size=N/A time=00:00:02.36 bitrate=N/A    frame=   77 fps=9.7 q=24.8 size=N/A time=00:00:02.56 bitrate=N/A    frame=   83 fps=9.8 q=24.8 size=N/A time=00:00:02.76 bitrate=N/A    frame=   89 fps=9.8 q=24.8 size=N/A time=00:00:02.96 bitrate=N/A    frame=   95 fps=9.9 q=24.8 size=N/A time=00:00:03.16 bitrate=N/A    frame=  101 fps=9.9 q=24.8 size=N/A time=00:00:03.37 bitrate=N/A    frame=  107 fps= 10 q=24.8 size=N/A time=00:00:03.57 bitrate=N/A    frame=  113 fps= 10 q=24.8 size=N/A time=00:00:03.77 bitrate=N/A    frame=  119 fps= 10 q=24.8 size=N/A time=00:00:03.97 bitrate=N/A    frame=  125 fps= 10 q=24.8 size=N/A time=00:00:04.17 bitrate=N/A    frame=  131 fps= 10 q=24.8 size=N/A time=00:00:04.37 bitrate=N/A    frame=  137 fps= 10 q=24.8 size=N/A time=00:00:04.57 bitrate=N/A    frame=  143 fps= 10 q=24.8 size=N/A time=00:00:04.77 bitrate=N/A    frame=  149 fps= 10 q=24.8 size=N/A time=00:00:04.97 bitrate=N/A    frame=  155 fps= 10 q=24.8 size=N/A time=00:00:05.17 bitrate=N/A    frame=  161 fps= 10 q=24.8 size=N/A time=00:00:05.37 bitrate=N/A    frame=  167 fps= 10 q=24.8 size=N/A time=00:00:05.57 bitrate=N/A    frame=  173 fps= 10 q=24.8 size=N/A time=00:00:05.77 bitrate=N/A    frame=  179 fps= 10 q=24.8 size=N/A time=00:00:05.97 bitrate=N/A    frame=  185 fps= 10 q=24.8 size=N/A time=00:00:06.17 bitrate=N/A    frame=  191 fps= 10 q=24.8 size=N/A time=00:00:06.37 bitrate=N/A    frame=  197 fps= 10 q=24.8 size=N/A time=00:00:06.57 bitrate=N/A    frame=  203 fps= 10 q=24.8 size=N/A time=00:00:06.77 bitrate=N/A    frame=  209 fps= 10 q=24.8 size=N/A time=00:00:06.97 bitrate=N/A    frame=  215 fps= 10 q=24.8 size=N/A time=00:00:07.17 bitrate=N/A    frame=  221 fps= 10 q=24.8 size=N/A time=00:00:07.37 bitrate=N/A    frame=  227 fps= 10 q=24.8 size=N/A time=00:00:07.57 bitrate=N/A    frame=  233 fps= 10 q=24.8 size=N/A time=00:00:07.77 bitrate=N/A    frame=  239 fps= 10 q=24.8 size=N/A time=00:00:07.97 bitrate=N/A    frame=  245 fps= 10 q=24.8 size=N/A time=00:00:08.17 bitrate=N/A    frame=  251 fps= 10 q=24.8 size=N/A time=00:00:08.37 bitrate=N/A    frame=  257 fps= 10 q=24.8 size=N/A time=00:00:08.57 bitrate=N/A    frame=  263 fps= 10 q=24.8 size=N/A time=00:00:08.77 bitrate=N/A    frame=  269 fps= 10 q=24.8 size=N/A time=00:00:08.97 bitrate=N/A    frame=  275 fps= 10 q=24.8 size=N/A time=00:00:09.17 bitrate=N/A    frame=  281 fps= 10 q=24.8 size=N/A time=00:00:09.37 bitrate=N/A    frame=  287 fps= 10 q=24.8 size=N/A time=00:00:09.57 bitrate=N/A    frame=  293 fps= 10 q=24.8 size=N/A time=00:00:09.77 bitrate=N/A    frame=  299 fps= 10 q=24.8 size=N/A time=00:00:09.97 bitrate=N/A    frame=  305 fps= 10 q=24.8 size=N/A time=00:00:10.17 bitrate=N/A    frame=  311 fps= 10 q=24.8 size=N/A time=00:00:10.37 bitrate=N/A    frame=  317 fps= 10 q=24.8 size=N/A time=00:00:10.57 bitrate=N/A    frame=  323 fps= 10 q=24.8 size=N/A time=00:00:10.77 bitrate=N/A    frame=  329 fps= 10 q=24.8 size=N/A time=00:00:10.97 bitrate=N/A    frame=  335 fps= 10 q=24.8 size=N/A time=00:00:11.17 bitrate=N/A    frame=  341 fps= 10 q=24.8 size=N/A time=00:00:11.37 bitrate=N/A    frame=  347 fps= 10 q=24.8 size=N/A time=00:00:11.57 bitrate=N/A    frame=  353 fps= 10 q=24.8 size=N/A time=00:00:11.77 bitrate=N/A    frame=  359 fps= 10 q=24.8 size=N/A time=00:00:11.97 bitrate=N/A    frame=  365 fps= 10 q=24.8 size=N/A time=00:00:12.17 bitrate=N/A    frame=  371 fps= 10 q=24.8 size=N/A time=00:00:12.37 bitrate=N/A    frame=  377 fps= 10 q=24.8 size=N/A time=00:00:12.57 bitrate=N/A    frame=  383 fps= 10 q=24.8 size=N/A time=00:00:12.77 bitrate=N/A    frame=  389 fps= 10 q=24.8 size=N/A time=00:00:12.97 bitrate=N/A    frame=  395 fps= 10 q=24.8 size=N/A time=00:00:13.17 bitrate=N/A    frame=  401 fps= 10 q=24.8 size=N/A time=00:00:13.38 bitrate=N/A    frame=  407 fps= 10 q=24.8 size=N/A time=00:00:13.58 bitrate=N/A    frame=  413 fps= 10 q=24.8 size=N/A time=00:00:13.78 bitrate=N/A    frame=  419 fps= 10 q=24.8 size=N/A time=00:00:13.98 bitrate=N/A    frame=  425 fps= 10 q=24.8 size=N/A time=00:00:14.18 bitrate=N/A    frame=  431 fps= 10 q=24.8 size=N/A time=00:00:14.38 bitrate=N/A    frame=  437 fps= 10 q=24.8 size=N/A time=00:00:14.58 bitrate=N/A    frame=  443 fps= 10 q=24.8 size=N/A time=00:00:14.78 bitrate=N/A    frame=  449 fps= 10 q=24.8 size=N/A time=00:00:14.98 bitrate=N/A    frame=  455 fps= 10 q=24.8 size=N/A time=00:00:15.18 bitrate=N/A    frame=  461 fps= 10 q=24.8 size=N/A time=00:00:15.38 bitrate=N/A    frame=  467 fps= 10 q=24.8 size=N/A time=00:00:15.58 bitrate=N/A    frame=  473 fps= 10 q=24.8 size=N/A time=00:00:15.78 bitrate=N/A    frame=  479 fps= 10 q=24.8 size=N/A time=00:00:15.98 bitrate=N/A    frame=  485 fps= 10 q=24.8 size=N/A time=00:00:16.18 bitrate=N/A    frame=  491 fps= 10 q=24.8 size=N/A time=00:00:16.38 bitrate=N/A    frame=  497 fps= 10 q=24.8 size=N/A time=00:00:16.58 bitrate=N/A    frame=  503 fps= 10 q=24.8 size=N/A time=00:00:16.78 bitrate=N/A    frame=  509 fps= 10 q=24.8 size=N/A time=00:00:16.98 bitrate=N/A    frame=  515 fps= 10 q=24.8 size=N/A time=00:00:17.18 bitrate=N/A    frame=  521 fps= 10 q=24.8 size=N/A time=00:00:17.38 bitrate=N/A    frame=  527 fps= 10 q=24.8 size=N/A time=00:00:17.58 bitrate=N/A    frame=  533 fps= 10 q=24.8 size=N/A time=00:00:17.78 bitrate=N/A    frame=  539 fps= 10 q=24.8 size=N/A time=00:00:17.98 bitrate=N/A    frame=  545 fps= 10 q=24.8 size=N/A time=00:00:18.18 bitrate=N/A    frame=  551 fps= 10 q=24.8 size=N/A time=00:00:18.38 bitrate=N/A    frame=  557 fps= 10 q=24.8 size=N/A time=00:00:18.58 bitrate=N/A    frame=  563 fps= 10 q=24.8 size=N/A time=00:00:18.78 bitrate=N/A    frame=  569 fps= 10 q=24.8 size=N/A time=00:00:18.98 bitrate=N/A    frame=  575 fps= 10 q=24.8 size=N/A time=00:00:19.18 bitrate=N/A    frame=  581 fps= 10 q=24.8 size=N/A time=00:00:19.38 bitrate=N/A    frame=  587 fps= 10 q=24.8 size=N/A time=00:00:19.58 bitrate=N/A    frame=  593 fps= 10 q=24.8 size=N/A time=00:00:19.78 bitrate=N/A    frame=  599 fps= 10 q=24.8 size=N/A time=00:00:19.98 bitrate=N/A    frame=  605 fps= 10 q=24.8 size=N/A time=00:00:20.18 bitrate=N/A    frame=  611 fps= 10 q=24.8 size=N/A time=00:00:20.38 bitrate=N/A    frame=  617 fps= 10 q=24.8 size=N/A time=00:00:20.58 bitrate=N/A    frame=  623 fps= 10 q=24.8 size=N/A time=00:00:20.78 bitrate=N/A    frame=  629 fps= 10 q=24.8 size=N/A time=00:00:20.98 bitrate=N/A    frame=  635 fps= 10 q=24.8 size=N/A time=00:00:21.18 bitrate=N/A    frame=  641 fps= 10 q=24.8 size=N/A time=00:00:21.38 bitrate=N/A    frame=  647 fps= 10 q=24.8 size=N/A time=00:00:21.58 bitrate=N/A    frame=  653 fps= 10 q=24.8 size=N/A time=00:00:21.78 bitrate=N/A    frame=  659 fps= 10 q=24.8 size=N/A time=00:00:21.98 bitrate=N/A    frame=  665 fps= 10 q=24.8 size=N/A time=00:00:22.18 bitrate=N/A    frame=  671 fps= 10 q=24.8 size=N/A time=00:00:22.38 bitrate=N/A    frame=  677 fps= 10 q=24.8 size=N/A time=00:00:22.58 bitrate=N/A    frame=  683 fps= 10 q=24.8 size=N/A time=00:00:22.78 bitrate=N/A    frame=  689 fps= 10 q=24.8 size=N/A time=00:00:22.98 bitrate=N/A    frame=  695 fps= 10 q=24.8 size=N/A time=00:00:23.18 bitrate=N/A    frame=  701 fps= 10 q=24.8 size=N/A time=00:00:23.39 bitrate=N/A    frame=  707 fps= 10 q=24.8 size=N/A time=00:00:23.59 bitrate=N/A    frame=  713 fps= 10 q=24.8 size=N/A time=00:00:23.79 bitrate=N/A    frame=  719 fps= 10 q=24.8 size=N/A time=00:00:23.99 bitrate=N/A    frame=  725 fps= 10 q=24.8 size=N/A time=00:00:24.19 bitrate=N/A    frame=  731 fps= 10 q=24.8 size=N/A time=00:00:24.39 bitrate=N/A    frame=  737 fps= 10 q=24.8 size=N/A time=00:00:24.59 bitrate=N/A    frame=  743 fps= 10 q=24.8 size=N/A time=00:00:24.79 bitrate=N/A    frame=  749 fps= 10 q=24.8 size=N/A time=00:00:24.99 bitrate=N/A    frame=  755 fps= 10 q=24.8 size=N/A time=00:00:25.19 bitrate=N/A    frame=  761 fps= 10 q=24.8 size=N/A time=00:00:25.39 bitrate=N/A    frame=  767 fps= 10 q=24.8 size=N/A time=00:00:25.59 bitrate=N/A    frame=  773 fps= 10 q=24.8 size=N/A time=00:00:25.79 bitrate=N/A    frame=  779 fps= 10 q=24.8 size=N/A time=00:00:25.99 bitrate=N/A    frame=  785 fps= 10 q=24.8 size=N/A time=00:00:26.19 bitrate=N/A    frame=  791 fps= 10 q=24.8 size=N/A time=00:00:26.39 bitrate=N/A    frame=  797 fps= 10 q=24.8 size=N/A time=00:00:26.59 bitrate=N/A    frame=  803 fps= 10 q=24.8 size=N/A time=00:00:26.79 bitrate=N/A    frame=  809 fps= 10 q=24.8 size=N/A time=00:00:26.99 bitrate=N/A    frame=  815 fps= 10 q=24.8 size=N/A time=00:00:27.19 bitrate=N/A    frame=  821 fps= 10 q=24.8 size=N/A time=00:00:27.39 bitrate=N/A    frame=  827 fps= 10 q=24.8 size=N/A time=00:00:27.59 bitrate=N/A    frame=  833 fps= 10 q=24.8 size=N/A time=00:00:27.79 bitrate=N/A    frame=  839 fps= 10 q=24.8 size=N/A time=00:00:27.99 bitrate=N/A    frame=  845 fps= 10 q=24.8 size=N/A time=00:00:28.19 bitrate=N/A    frame=  851 fps= 10 q=24.8 size=N/A time=00:00:28.39 bitrate=N/A    frame=  857 fps= 10 q=24.8 size=N/A time=00:00:28.59 bitrate=N/A    frame=  863 fps= 10 q=24.8 size=N/A time=00:00:28.79 bitrate=N/A    frame=  869 fps= 10 q=24.8 size=N/A time=00:00:28.99 bitrate=N/A    frame=  875 fps= 10 q=24.8 size=N/A time=00:00:29.19 bitrate=N/A    frame=  881 fps= 10 q=24.8 size=N/A time=00:00:29.39 bitrate=N/A    frame=  887 fps= 10 q=24.8 size=N/A time=00:00:29.59 bitrate=N/A    frame=  893 fps= 10 q=24.8 size=N/A time=00:00:29.79 bitrate=N/A    frame=  899 fps= 10 q=24.8 size=N/A time=00:00:29.99 bitrate=N/A    frame=  905 fps= 10 q=24.8 size=N/A time=00:00:30.19 bitrate=N/A    frame=  911 fps= 10 q=24.8 size=N/A time=00:00:30.39 bitrate=N/A    frame=  917 fps= 10 q=24.8 size=N/A time=00:00:30.59 bitrate=N/A    frame=  923 fps= 10 q=24.8 size=N/A time=00:00:30.79 bitrate=N/A    frame=  929 fps= 10 q=24.8 size=N/A time=00:00:30.99 bitrate=N/A    frame=  935 fps= 10 q=24.8 size=N/A time=00:00:31.19 bitrate=N/A    frame=  941 fps= 10 q=24.8 size=N/A time=00:00:31.39 bitrate=N/A    frame=  947 fps= 10 q=24.8 size=N/A time=00:00:31.59 bitrate=N/A    frame=  953 fps= 10 q=24.8 size=N/A time=00:00:31.79 bitrate=N/A    frame=  959 fps= 10 q=24.8 size=N/A time=00:00:31.99 bitrate=N/A    frame=  965 fps= 10 q=24.8 size=N/A time=00:00:32.19 bitrate=N/A    frame=  971 fps= 10 q=24.8 size=N/A time=00:00:32.39 bitrate=N/A    frame=  977 fps= 10 q=24.8 size=N/A time=00:00:32.59 bitrate=N/A    frame=  983 fps= 10 q=24.8 size=N/A time=00:00:32.79 bitrate=N/A    frame=  989 fps= 10 q=24.8 size=N/A time=00:00:32.99 bitrate=N/A    frame=  995 fps= 10 q=24.8 size=N/A time=00:00:33.19 bitrate=N/A    frame= 1001 fps= 10 q=24.8 size=N/A time=00:00:33.40 bitrate=N/A    frame= 1007 fps= 10 q=24.8 size=N/A time=00:00:33.60 bitrate=N/A    frame= 1013 fps= 10 q=24.8 size=N/A time=00:00:33.80 bitrate=N/A    frame= 1019 fps= 10 q=24.8 size=N/A time=00:00:34.00 bitrate=N/A    frame= 1025 fps= 10 q=24.8 size=N/A time=00:00:34.20 bitrate=N/A    frame= 1031 fps= 10 q=24.8 size=N/A time=00:00:34.40 bitrate=N/A    frame= 1037 fps= 10 q=24.8 size=N/A time=00:00:34.60 bitrate=N/A    frame= 1043 fps= 10 q=24.8 size=N/A time=00:00:34.80 bitrate=N/A    frame= 1049 fps= 10 q=24.8 size=N/A time=00:00:35.00 bitrate=N/A    frame= 1055 fps= 10 q=24.8 size=N/A time=00:00:35.20 bitrate=N/A    frame= 1061 fps= 10 q=24.8 size=N/A time=00:00:35.40 bitrate=N/A    frame= 1067 fps= 10 q=24.8 size=N/A time=00:00:35.60 bitrate=N/A    frame= 1073 fps= 10 q=24.8 size=N/A time=00:00:35.80 bitrate=N/A    frame= 1079 fps= 10 q=24.8 size=N/A time=00:00:36.00 bitrate=N/A    frame= 1085 fps= 10 q=24.8 size=N/A time=00:00:36.20 bitrate=N/A    frame= 1091 fps= 10 q=24.8 size=N/A time=00:00:36.40 bitrate=N/A    frame= 1097 fps= 10 q=24.8 size=N/A time=00:00:36.60 bitrate=N/A    frame= 1103 fps= 10 q=24.8 size=N/A time=00:00:36.80 bitrate=N/A    frame= 1108 fps= 10 q=24.8 size=N/A time=00:00:36.97 bitrate=N/A    frame= 1113 fps= 10 q=24.8 size=N/A time=00:00:37.13 bitrate=N/A    frame= 1118 fps= 10 q=24.8 size=N/A time=00:00:37.30 bitrate=N/A    frame= 1123 fps= 10 q=24.8 size=N/A time=00:00:37.47 bitrate=N/A    frame= 1128 fps= 10 q=24.8 size=N/A time=00:00:37.63 bitrate=N/A    frame= 1133 fps= 10 q=24.8 size=N/A time=00:00:37.80 bitrate=N/A    frame= 1138 fps= 10 q=24.8 size=N/A time=00:00:37.97 bitrate=N/A    frame= 1143 fps= 10 q=24.8 size=N/A time=00:00:38.13 bitrate=N/A    frame= 1148 fps= 10 q=24.8 size=N/A time=00:00:38.30 bitrate=N/A    frame= 1153 fps= 10 q=24.8 size=N/A time=00:00:38.47 bitrate=N/A    frame= 1158 fps= 10 q=24.8 size=N/A time=00:00:38.63 bitrate=N/A    frame= 1163 fps= 10 q=24.8 size=N/A time=00:00:38.80 bitrate=N/A    frame= 1168 fps= 10 q=24.8 size=N/A time=00:00:38.97 bitrate=N/A    frame= 1173 fps= 10 q=24.8 size=N/A time=00:00:39.13 bitrate=N/A    frame= 1178 fps= 10 q=24.8 size=N/A time=00:00:39.30 bitrate=N/A    frame= 1183 fps= 10 q=24.8 size=N/A time=00:00:39.47 bitrate=N/A    frame= 1188 fps= 10 q=24.8 size=N/A time=00:00:39.63 bitrate=N/A    frame= 1193 fps= 10 q=24.8 size=N/A time=00:00:39.80 bitrate=N/A    frame= 1198 fps= 10 q=24.8 size=N/A time=00:00:39.97 bitrate=N/A    frame= 1203 fps= 10 q=24.8 size=N/A time=00:00:40.14 bitrate=N/A    frame= 1208 fps= 10 q=24.8 size=N/A time=00:00:40.30 bitrate=N/A    frame= 1213 fps= 10 q=24.8 size=N/A time=00:00:40.47 bitrate=N/A    frame= 1218 fps= 10 q=24.8 size=N/A time=00:00:40.64 bitrate=N/A    frame= 1223 fps= 10 q=24.8 size=N/A time=00:00:40.80 bitrate=N/A    frame= 1228 fps= 10 q=24.8 size=N/A time=00:00:40.97 bitrate=N/A    frame= 1233 fps= 10 q=24.8 size=N/A time=00:00:41.14 bitrate=N/A    frame= 1238 fps= 10 q=24.8 size=N/A time=00:00:41.30 bitrate=N/A    frame= 1243 fps= 10 q=24.8 size=N/A time=00:00:41.47 bitrate=N/A    frame= 1248 fps= 10 q=24.8 size=N/A time=00:00:41.64 bitrate=N/A    frame= 1253 fps= 10 q=24.8 size=N/A time=00:00:41.80 bitrate=N/A    frame= 1258 fps= 10 q=24.8 size=N/A time=00:00:41.97 bitrate=N/A    frame= 1263 fps= 10 q=24.8 size=N/A time=00:00:42.14 bitrate=N/A    frame= 1268 fps= 10 q=24.8 size=N/A time=00:00:42.30 bitrate=N/A    frame= 1273 fps= 10 q=24.8 size=N/A time=00:00:42.47 bitrate=N/A    frame= 1278 fps= 10 q=24.8 size=N/A time=00:00:42.64 bitrate=N/A    frame= 1283 fps= 10 q=24.8 size=N/A time=00:00:42.80 bitrate=N/A    frame= 1288 fps= 10 q=24.8 size=N/A time=00:00:42.97 bitrate=N/A    frame= 1293 fps= 10 q=24.8 size=N/A time=00:00:43.14 bitrate=N/A    frame= 1298 fps= 10 q=24.8 size=N/A time=00:00:43.30 bitrate=N/A    frame= 1303 fps= 10 q=24.8 size=N/A time=00:00:43.47 bitrate=N/A    frame= 1308 fps= 10 q=24.8 size=N/A time=00:00:43.64 bitrate=N/A    frame= 1313 fps= 10 q=24.8 size=N/A time=00:00:43.81 bitrate=N/A    frame= 1318 fps= 10 q=24.8 size=N/A time=00:00:43.97 bitrate=N/A    frame= 1323 fps= 10 q=24.8 size=N/A time=00:00:44.14 bitrate=N/A    frame= 1328 fps= 10 q=24.8 size=N/A time=00:00:44.31 bitrate=N/A    frame= 1333 fps= 10 q=24.8 size=N/A time=00:00:44.47 bitrate=N/A    frame= 1338 fps= 10 q=24.8 size=N/A time=00:00:44.64 bitrate=N/A    frame= 1343 fps= 10 q=24.8 size=N/A time=00:00:44.81 bitrate=N/A    frame= 1348 fps= 10 q=24.8 size=N/A time=00:00:44.97 bitrate=N/A    frame= 1353 fps= 10 q=24.8 size=N/A time=00:00:45.14 bitrate=N/A    frame= 1358 fps= 10 q=24.8 size=N/A time=00:00:45.31 bitrate=N/A    frame= 1363 fps= 10 q=24.8 size=N/A time=00:00:45.47 bitrate=N/A    frame= 1368 fps= 10 q=24.8 size=N/A time=00:00:45.64 bitrate=N/A    frame= 1373 fps= 10 q=24.8 size=N/A time=00:00:45.81 bitrate=N/A    frame= 1378 fps= 10 q=24.8 size=N/A time=00:00:45.97 bitrate=N/A    frame= 1383 fps= 10 q=24.8 size=N/A time=00:00:46.14 bitrate=N/A    frame= 1388 fps= 10 q=24.8 size=N/A time=00:00:46.31 bitrate=N/A    frame= 1393 fps= 10 q=24.8 size=N/A time=00:00:46.47 bitrate=N/A    frame= 1398 fps= 10 q=24.8 size=N/A time=00:00:46.64 bitrate=N/A    frame= 1403 fps= 10 q=24.8 size=N/A time=00:00:46.81 bitrate=N/A    frame= 1408 fps= 10 q=24.8 size=N/A time=00:00:46.98 bitrate=N/A    frame= 1413 fps= 10 q=24.8 size=N/A time=00:00:47.14 bitrate=N/A    frame= 1418 fps= 10 q=24.8 size=N/A time=00:00:47.31 bitrate=N/A    frame= 1423 fps= 10 q=24.8 size=N/A time=00:00:47.48 bitrate=N/A    frame= 1428 fps= 10 q=24.8 size=N/A time=00:00:47.64 bitrate=N/A    frame= 1433 fps= 10 q=24.8 size=N/A time=00:00:47.81 bitrate=N/A    frame= 1438 fps= 10 q=24.8 size=N/A time=00:00:47.98 bitrate=N/A    frame= 1443 fps= 10 q=24.8 size=N/A time=00:00:48.14 bitrate=N/A    frame= 1448 fps= 10 q=24.8 size=N/A time=00:00:48.31 bitrate=N/A    frame= 1453 fps= 10 q=24.8 size=N/A time=00:00:48.48 bitrate=N/A    frame= 1458 fps= 10 q=24.8 size=N/A time=00:00:48.64 bitrate=N/A    frame= 1463 fps= 10 q=24.8 size=N/A time=00:00:48.81 bitrate=N/A    frame= 1468 fps= 10 q=24.8 size=N/A time=00:00:48.98 bitrate=N/A    frame= 1473 fps= 10 q=24.8 size=N/A time=00:00:49.14 bitrate=N/A    frame= 1478 fps= 10 q=24.8 size=N/A time=00:00:49.31 bitrate=N/A    frame= 1483 fps= 10 q=24.8 size=N/A time=00:00:49.48 bitrate=N/A    frame= 1488 fps= 10 q=24.8 size=N/A time=00:00:49.64 bitrate=N/A    frame= 1493 fps= 10 q=24.8 size=N/A time=00:00:49.81 bitrate=N/A    frame= 1498 fps= 10 q=24.8 size=N/A time=00:00:49.98 bitrate=N/A    frame= 1503 fps= 10 q=24.8 size=N/A time=00:00:50.15 bitrate=N/A    frame= 1508 fps= 10 q=24.8 size=N/A time=00:00:50.31 bitrate=N/A    frame= 1513 fps= 10 q=24.8 size=N/A time=00:00:50.48 bitrate=N/A    frame= 1518 fps= 10 q=24.8 size=N/A time=00:00:50.65 bitrate=N/A    frame= 1523 fps= 10 q=24.8 size=N/A time=00:00:50.81 bitrate=N/A    frame= 1528 fps= 10 q=24.8 size=N/A time=00:00:50.98 bitrate=N/A    frame= 1533 fps= 10 q=24.8 size=N/A time=00:00:51.15 bitrate=N/A    frame= 1538 fps= 10 q=24.8 size=N/A time=00:00:51.31 bitrate=N/A    frame= 1543 fps= 10 q=24.8 size=N/A time=00:00:51.48 bitrate=N/A    frame= 1548 fps= 10 q=24.8 size=N/A time=00:00:51.65 bitrate=N/A    frame= 1553 fps= 10 q=24.8 size=N/A time=00:00:51.81 bitrate=N/A    frame= 1558 fps= 10 q=24.8 size=N/A time=00:00:51.98 bitrate=N/A    frame= 1563 fps= 10 q=24.8 size=N/A time=00:00:52.15 bitrate=N/A    frame= 1568 fps= 10 q=24.8 size=N/A time=00:00:52.31 bitrate=N/A    frame= 1573 fps= 10 q=24.8 size=N/A time=00:00:52.48 bitrate=N/A    frame= 1578 fps= 10 q=24.8 size=N/A time=00:00:52.65 bitrate=N/A    frame= 1583 fps= 10 q=24.8 size=N/A time=00:00:52.81 bitrate=N/A    frame= 1588 fps= 10 q=24.8 size=N/A time=00:00:52.98 bitrate=N/A    frame= 1593 fps= 10 q=24.8 size=N/A time=00:00:53.15 bitrate=N/A    frame= 1598 fps= 10 q=24.8 size=N/A time=00:00:53.31 bitrate=N/A    frame= 1603 fps= 10 q=24.8 size=N/A time=00:00:53.48 bitrate=N/A    frame= 1608 fps= 10 q=24.8 size=N/A time=00:00:53.65 bitrate=N/A    frame= 1613 fps= 10 q=24.8 size=N/A time=00:00:53.82 bitrate=N/A    frame= 1618 fps= 10 q=24.8 size=N/A time=00:00:53.98 bitrate=N/A    frame= 1623 fps= 10 q=24.8 size=N/A time=00:00:54.15 bitrate=N/A    frame= 1628 fps= 10 q=24.8 size=N/A time=00:00:54.32 bitrate=N/A    frame= 1633 fps= 10 q=24.8 size=N/A time=00:00:54.48 bitrate=N/A    frame= 1638 fps= 10 q=24.8 size=N/A time=00:00:54.65 bitrate=N/A    frame= 1643 fps= 10 q=24.8 size=N/A time=00:00:54.82 bitrate=N/A    frame= 1648 fps= 10 q=24.8 size=N/A time=00:00:54.98 bitrate=N/A    frame= 1653 fps= 10 q=24.8 size=N/A time=00:00:55.15 bitrate=N/A    frame= 1658 fps= 10 q=24.8 size=N/A time=00:00:55.32 bitrate=N/A    frame= 1663 fps= 10 q=24.8 size=N/A time=00:00:55.48 bitrate=N/A    frame= 1668 fps= 10 q=24.8 size=N/A time=00:00:55.65 bitrate=N/A    frame= 1673 fps= 10 q=24.8 size=N/A time=00:00:55.82 bitrate=N/A    frame= 1678 fps= 10 q=24.8 size=N/A time=00:00:55.98 bitrate=N/A    frame= 1683 fps= 10 q=24.8 size=N/A time=00:00:56.15 bitrate=N/A    frame= 1688 fps= 10 q=24.8 size=N/A time=00:00:56.32 bitrate=N/A    frame= 1693 fps= 10 q=24.8 size=N/A time=00:00:56.48 bitrate=N/A    frame= 1698 fps= 10 q=24.8 size=N/A time=00:00:56.65 bitrate=N/A    frame= 1703 fps= 10 q=24.8 size=N/A time=00:00:56.82 bitrate=N/A    frame= 1708 fps= 10 q=24.8 size=N/A time=00:00:56.99 bitrate=N/A    frame= 1713 fps= 10 q=24.8 size=N/A time=00:00:57.15 bitrate=N/A    frame= 1718 fps= 10 q=24.8 size=N/A time=00:00:57.32 bitrate=N/A    frame= 1723 fps= 10 q=24.8 size=N/A time=00:00:57.49 bitrate=N/A    frame= 1728 fps= 10 q=24.8 size=N/A time=00:00:57.65 bitrate=N/A    frame= 1733 fps= 10 q=24.8 size=N/A time=00:00:57.82 bitrate=N/A    frame= 1738 fps= 10 q=24.8 size=N/A time=00:00:57.99 bitrate=N/A    frame= 1743 fps= 10 q=24.8 size=N/A time=00:00:58.15 bitrate=N/A    frame= 1748 fps= 10 q=24.8 size=N/A time=00:00:58.32 bitrate=N/A    frame= 1753 fps= 10 q=24.8 size=N/A time=00:00:58.49 bitrate=N/A    frame= 1758 fps= 10 q=24.8 size=N/A time=00:00:58.65 bitrate=N/A    frame= 1763 fps= 10 q=24.8 size=N/A time=00:00:58.82 bitrate=N/A    frame= 1768 fps= 10 q=24.8 size=N/A time=00:00:58.99 bitrate=N/A    frame= 1773 fps= 10 q=24.8 size=N/A time=00:00:59.15 bitrate=N/A    frame= 1778 fps= 10 q=24.8 size=N/A time=00:00:59.32 bitrate=N/A    frame= 1783 fps= 10 q=24.8 size=N/A time=00:00:59.49 bitrate=N/A    frame= 1788 fps= 10 q=24.8 size=N/A time=00:00:59.65 bitrate=N/A    frame= 1793 fps= 10 q=24.8 size=N/A time=00:00:59.82 bitrate=N/A    frame= 1798 fps= 10 q=24.8 size=N/A time=00:00:59.99 bitrate=N/A    frame= 1803 fps= 10 q=24.8 size=N/A time=00:01:00.16 bitrate=N/A    frame= 1808 fps= 10 q=24.8 size=N/A time=00:01:00.32 bitrate=N/A    frame= 1813 fps= 10 q=24.8 size=N/A time=00:01:00.49 bitrate=N/A    frame= 1818 fps= 10 q=24.8 size=N/A time=00:01:00.66 bitrate=N/A    frame= 1823 fps= 10 q=24.8 size=N/A time=00:01:00.82 bitrate=N/A    frame= 1828 fps= 10 q=24.8 size=N/A time=00:01:00.99 bitrate=N/A    frame= 1833 fps= 10 q=24.8 size=N/A time=00:01:01.16 bitrate=N/A    frame= 1838 fps= 10 q=24.8 size=N/A time=00:01:01.32 bitrate=N/A    frame= 1843 fps= 10 q=24.8 size=N/A time=00:01:01.49 bitrate=N/A    frame= 1848 fps= 10 q=24.8 size=N/A time=00:01:01.66 bitrate=N/A    frame= 1853 fps= 10 q=24.8 size=N/A time=00:01:01.82 bitrate=N/A    frame= 1858 fps= 10 q=24.8 size=N/A time=00:01:01.99 bitrate=N/A    frame= 1863 fps= 10 q=24.8 size=N/A time=00:01:02.16 bitrate=N/A    frame= 1868 fps=9.9 q=24.8 size=N/A time=00:01:02.32 bitrate=N/A    frame= 1871 fps=9.9 q=24.8 Lsize=N/A time=00:01:02.42 bitrate=N/A    
video:1072154kB audio:0kB subtitle:0kB other streams:0kB global headers:0kB muxing overhead: unknown
+ turkic load Turas_belviz_Homokmegy_2018.04.25._napos_kalaszos_T1 /home/horvathandras/vatic/vatic/videos/Turas_belviz_Homokmegy_2018.04.25._napos_kalaszos_T1 $'Pozit\303\255vROI' $'Negat\303\255vROI' $'T\303\272r\303\241s' '~Friss' '~Régebbi' $'R\303\241g\303\241s' '~Friss' '~Régebbi' $'T\303\266r\303\251s' '~Friss' '~Régebbi' $'Tapos\303\241s' '~Friss' '~Régebbi' $'Eg\303\251szs\303\251gesN\303\266v\303\251ny' $'Egy\303\251b1' $'Egy\303\251b2' $'Egy\303\251b3' $'Egy\303\251b4' $'Egy\303\251b5' --offline --title '$filenameNoDot Video' --length 1000 --description 'vatic annotation'
+ turkic publish --offline
+ mkdir /home/horvathandras/vatic/vatic/public/videothumbnails/Turas_belviz_Homokmegy_2018.04.25._napos_kalaszos_T1
+ cp /home/horvathandras/vatic/vatic/videos/Turas_belviz_Homokmegy_2018.04.25._napos_kalaszos_T1/0/0/31.jpg /home/horvathandras/vatic/vatic/public/videothumbnails/Turas_belviz_Homokmegy_2018.04.25._napos_kalaszos_T1/thumb.jpg
